<svg xmlns="http://www.w3.org/2000/svg" xmlns:xlink="http://www.w3.org/1999/xlink" width="120" height="60" stroke="#000" stroke-linecap="round" stroke-linejoin="round" fill="#fff" fill-rule="evenodd"><g stroke="none" fill-rule="nonzero"><path d="M17.5207 53.3333c4.3834 0 7.9417-3.5583 7.9417-7.9416V37.45h-7.9417c-4.3833 0-7.9416 3.5583-7.9416 7.9417s3.5583 7.9416 7.9416 7.9416z" fill="#0acf83"/><use xlink:href="#B" fill="#a259ff"/><use xlink:href="#B" y="-15.8917" fill="#f24e1e"/><path d="M25.3875 5.6667h7.9417c4.3833 0 7.9416 3.5583 7.9416 7.9417S37.7125 21.55 33.3292 21.55h-7.9417z" fill="#ff7262"/><path d="M41.3542 29.5001c0 4.3833-3.5584 7.9416-7.9417 7.9416s-8.025-3.5583-8.025-7.9416 3.5583-7.9417 7.9417-7.9417 7.9416 3.5583 7.9416 7.9417z" fill="#1abcfe"/><path d="M50.0375 18.8334v16.65h2.1416v-7.95h5.1501v-2.0667h-5.1501v-4.55h6.6917v-2.0833zm12.7083 3.3833a1.398 1.398 0 0 0 1.4-1.4c0-.775-.6333-1.3166-1.4-1.3166s-1.4.625-1.4 1.4c0 .375.15.725.4167 1s.6167.4166 1 .4166zm-1.0833 2.1v11.1667h2.0583V24.3167h-2.125zm10.1-.3333c-2.85 0-4.8334 2.5-4.8334 5.2667s2 5.25 4.8334 5.25a4.25 4.25 0 0 0 3.1583-1.325v1.4833a3.5 3.5 0 0 1-.9666 2.3917 3.334 3.334 0 0 1-2.3834 1c-.6815-.0216-1.3418-.2417-1.9-.6334l-1.0833 1.8584a5.5 5.5 0 0 0 5.617.1979c1.7672-.9679 2.8637-2.8247 2.858-4.8396V24.3001h-2.1417v1a4.25 4.25 0 0 0-3.1583-1.325zm-2.6834 5.2667a2.917 2.917 0 0 1 1.3834-2.75c.95-.5834 2.1417-.5834 3.0833 0a2.951 2.951 0 0 1 1.3833 2.75c.0996 1.1051-.4366 2.1711-1.3833 2.75s-2.1416.5833-3.0833 0a2.951 2.951 0 0 1-1.3834-2.75zm15.7084-3.0834a2.334 2.334 0 0 0-2.3251 2.325v7.0667h-2.1416V24.3917h2.1416v.9417c.6501-.8667 1.6834-1.3667 2.7667-1.35 1.3667-.0333 2.6417.7 3.3167 1.8917.8333-1.1667 2.0333-1.875 3.3334-1.8917 2.4416 0 3.9582 1.9667 3.9666 4.4v7.1083h-2.1417v-7.0833c.1282-.901-.2791-1.7942-1.0434-2.2883s-1.7461-.4985-2.5149-.0117a2.333 2.333 0 0 0-1.0333 2.3v7.0667h-2.0584v-7.0584c-.0045-1.2821-1.0428-2.3204-2.325-2.325zm22.4999-.5833c-.9852-1.0281-2.351-1.604-3.7749-1.5917-3.1917 0-5.4167 2.7-5.4167 5.8334s2.25 5.8333 5.4167 5.8333c1.4239.0123 2.7897-.5636 3.7749-1.5917v1.2667h2.1418V24.1667h-2.1418zm-7.0832 4.3333c-.1084-1.3333.5416-2.6166 1.6833-3.3166s2.5-.7 3.7167 0c1.1358.7049 1.7847 1.9836 1.6832 3.3166.1084 1.3334-.5416 2.6167-1.6832 3.3167s-2.5001.7-3.7167 0a3.583 3.583 0 0 1-1.6833-3.3167z"/></g><defs ><path id="B" d="M9.5708 29.5001c0-4.3834 3.5583-7.9417 7.9416-7.9417h7.9417v15.8917h-7.9417c-4.3833 0-7.9416-3.5584-7.9416-7.9417z"/></defs></svg>